<mxfile host="app.diagrams.net" modified="2024-05-15T01:23:22.908Z" agent="Mozilla/5.0 (Windows NT 10.0; Win64; x64) AppleWebKit/537.36 (KHTML, like Gecko) Chrome/124.0.0.0 Safari/537.36" etag="1AF7bOD4GFstN5prAy6m" version="24.4.0" type="github">
  <diagram name="第 1 页" id="MwQK_PsTrnuAOYf0lSXi">
    <mxGraphModel dx="3341" dy="2047" grid="1" gridSize="10" guides="1" tooltips="1" connect="1" arrows="1" fold="1" page="1" pageScale="1" pageWidth="827" pageHeight="1169" math="0" shadow="0">
      <root>
        <mxCell id="0" />
        <mxCell id="1" parent="0" />
        <mxCell id="HWDHlVqQiTKd7jb5pM2E-58" style="edgeStyle=orthogonalEdgeStyle;rounded=0;orthogonalLoop=1;jettySize=auto;html=1;exitX=0.5;exitY=1;exitDx=0;exitDy=0;exitPerimeter=0;" parent="1" source="HWDHlVqQiTKd7jb5pM2E-1" target="HWDHlVqQiTKd7jb5pM2E-4" edge="1">
          <mxGeometry relative="1" as="geometry" />
        </mxCell>
        <mxCell id="HWDHlVqQiTKd7jb5pM2E-1" value="绘制开始" style="strokeWidth=2;html=1;shape=mxgraph.flowchart.terminator;whiteSpace=wrap;" parent="1" vertex="1">
          <mxGeometry x="366.5" width="96" height="50" as="geometry" />
        </mxCell>
        <mxCell id="HWDHlVqQiTKd7jb5pM2E-5" style="edgeStyle=orthogonalEdgeStyle;rounded=0;orthogonalLoop=1;jettySize=auto;html=1;exitX=0.5;exitY=1;exitDx=0;exitDy=0;" parent="1" source="HWDHlVqQiTKd7jb5pM2E-4" target="HWDHlVqQiTKd7jb5pM2E-6" edge="1">
          <mxGeometry relative="1" as="geometry">
            <mxPoint x="414" y="220" as="targetPoint" />
          </mxGeometry>
        </mxCell>
        <mxCell id="HWDHlVqQiTKd7jb5pM2E-4" value="接收绘制区域信息" style="rounded=0;whiteSpace=wrap;html=1;" parent="1" vertex="1">
          <mxGeometry x="351" y="100" width="126" height="60" as="geometry" />
        </mxCell>
        <mxCell id="HWDHlVqQiTKd7jb5pM2E-8" style="edgeStyle=orthogonalEdgeStyle;rounded=0;orthogonalLoop=1;jettySize=auto;html=1;exitX=0.5;exitY=1;exitDx=0;exitDy=0;" parent="1" source="HWDHlVqQiTKd7jb5pM2E-6" target="HWDHlVqQiTKd7jb5pM2E-9" edge="1">
          <mxGeometry relative="1" as="geometry">
            <mxPoint x="414.3333333333335" y="330" as="targetPoint" />
          </mxGeometry>
        </mxCell>
        <mxCell id="HWDHlVqQiTKd7jb5pM2E-12" style="edgeStyle=orthogonalEdgeStyle;rounded=0;orthogonalLoop=1;jettySize=auto;html=1;exitX=1;exitY=0.5;exitDx=0;exitDy=0;entryX=1;entryY=0.5;entryDx=0;entryDy=0;" parent="1" source="HWDHlVqQiTKd7jb5pM2E-6" target="HWDHlVqQiTKd7jb5pM2E-9" edge="1">
          <mxGeometry relative="1" as="geometry" />
        </mxCell>
        <mxCell id="HWDHlVqQiTKd7jb5pM2E-6" value="判断区域是否为原点辐射,&lt;div&gt;或多边形集合为多边形否闭合,没闭合就末尾添加上起始点,区域来源不能为null&lt;/div&gt;" style="rhombus;whiteSpace=wrap;html=1;" parent="1" vertex="1">
          <mxGeometry x="294.5" y="200" width="240" height="190" as="geometry" />
        </mxCell>
        <mxCell id="HWDHlVqQiTKd7jb5pM2E-14" style="edgeStyle=orthogonalEdgeStyle;rounded=0;orthogonalLoop=1;jettySize=auto;html=1;exitX=0.5;exitY=1;exitDx=0;exitDy=0;" parent="1" source="HWDHlVqQiTKd7jb5pM2E-9" target="HWDHlVqQiTKd7jb5pM2E-15" edge="1">
          <mxGeometry relative="1" as="geometry">
            <mxPoint x="414.3333333333335" y="440" as="targetPoint" />
          </mxGeometry>
        </mxCell>
        <mxCell id="HWDHlVqQiTKd7jb5pM2E-9" value="将完善的信息保存,返回一个区域主键" style="rounded=0;whiteSpace=wrap;html=1;" parent="1" vertex="1">
          <mxGeometry x="354.0033333333335" y="420" width="120" height="60" as="geometry" />
        </mxCell>
        <mxCell id="HWDHlVqQiTKd7jb5pM2E-10" value="y" style="text;html=1;align=center;verticalAlign=middle;resizable=0;points=[];autosize=1;strokeColor=none;fillColor=none;" parent="1" vertex="1">
          <mxGeometry x="375" y="380" width="30" height="30" as="geometry" />
        </mxCell>
        <mxCell id="HWDHlVqQiTKd7jb5pM2E-13" value="n" style="text;html=1;align=center;verticalAlign=middle;resizable=0;points=[];autosize=1;strokeColor=none;fillColor=none;" parent="1" vertex="1">
          <mxGeometry x="520" y="350" width="30" height="30" as="geometry" />
        </mxCell>
        <mxCell id="HWDHlVqQiTKd7jb5pM2E-15" value="绘制结束" style="strokeWidth=2;html=1;shape=mxgraph.flowchart.terminator;whiteSpace=wrap;" parent="1" vertex="1">
          <mxGeometry x="364.5033333333335" y="524" width="100" height="60" as="geometry" />
        </mxCell>
        <mxCell id="HWDHlVqQiTKd7jb5pM2E-21" style="edgeStyle=orthogonalEdgeStyle;rounded=0;orthogonalLoop=1;jettySize=auto;html=1;exitX=0.5;exitY=1;exitDx=0;exitDy=0;exitPerimeter=0;" parent="1" source="HWDHlVqQiTKd7jb5pM2E-20" target="HWDHlVqQiTKd7jb5pM2E-22" edge="1">
          <mxGeometry relative="1" as="geometry">
            <mxPoint x="404.66666666666674" y="770" as="targetPoint" />
          </mxGeometry>
        </mxCell>
        <mxCell id="HWDHlVqQiTKd7jb5pM2E-20" value="通用闯入计算开始" style="strokeWidth=2;html=1;shape=mxgraph.flowchart.terminator;whiteSpace=wrap;" parent="1" vertex="1">
          <mxGeometry x="354.5" y="670" width="100" height="60" as="geometry" />
        </mxCell>
        <mxCell id="HWDHlVqQiTKd7jb5pM2E-23" style="edgeStyle=orthogonalEdgeStyle;rounded=0;orthogonalLoop=1;jettySize=auto;html=1;exitX=0.5;exitY=1;exitDx=0;exitDy=0;" parent="1" source="HWDHlVqQiTKd7jb5pM2E-22" target="HWDHlVqQiTKd7jb5pM2E-26" edge="1">
          <mxGeometry relative="1" as="geometry">
            <mxPoint x="404.66666666666674" y="890" as="targetPoint" />
          </mxGeometry>
        </mxCell>
        <mxCell id="HWDHlVqQiTKd7jb5pM2E-22" value="接收需要计算的点,以及需要计算的区域类型" style="rounded=0;whiteSpace=wrap;html=1;" parent="1" vertex="1">
          <mxGeometry x="334.5" y="770" width="140" height="80" as="geometry" />
        </mxCell>
        <mxCell id="HWDHlVqQiTKd7jb5pM2E-28" value="" style="edgeStyle=orthogonalEdgeStyle;rounded=0;orthogonalLoop=1;jettySize=auto;html=1;" parent="1" source="HWDHlVqQiTKd7jb5pM2E-26" target="HWDHlVqQiTKd7jb5pM2E-27" edge="1">
          <mxGeometry relative="1" as="geometry" />
        </mxCell>
        <mxCell id="HWDHlVqQiTKd7jb5pM2E-30" style="edgeStyle=orthogonalEdgeStyle;rounded=0;orthogonalLoop=1;jettySize=auto;html=1;exitX=1;exitY=0.5;exitDx=0;exitDy=0;entryX=1;entryY=0.5;entryDx=0;entryDy=0;" parent="1" source="HWDHlVqQiTKd7jb5pM2E-26" target="HWDHlVqQiTKd7jb5pM2E-27" edge="1">
          <mxGeometry relative="1" as="geometry" />
        </mxCell>
        <mxCell id="HWDHlVqQiTKd7jb5pM2E-26" value="计算判断点位是否位于管制区内" style="rhombus;whiteSpace=wrap;html=1;" parent="1" vertex="1">
          <mxGeometry x="302" y="890" width="205" height="160" as="geometry" />
        </mxCell>
        <mxCell id="HWDHlVqQiTKd7jb5pM2E-32" style="edgeStyle=orthogonalEdgeStyle;rounded=0;orthogonalLoop=1;jettySize=auto;html=1;exitX=0.5;exitY=1;exitDx=0;exitDy=0;" parent="1" source="HWDHlVqQiTKd7jb5pM2E-27" target="HWDHlVqQiTKd7jb5pM2E-33" edge="1">
          <mxGeometry relative="1" as="geometry">
            <mxPoint x="404.66666666666674" y="1209.9999999999998" as="targetPoint" />
          </mxGeometry>
        </mxCell>
        <mxCell id="HWDHlVqQiTKd7jb5pM2E-27" value="返回一个所在禁区集合列表,给上是否位于禁区标识" style="whiteSpace=wrap;html=1;" parent="1" vertex="1">
          <mxGeometry x="344.5" y="1100" width="120" height="60" as="geometry" />
        </mxCell>
        <mxCell id="HWDHlVqQiTKd7jb5pM2E-29" value="是&lt;div&gt;&lt;br&gt;&lt;/div&gt;" style="text;html=1;align=center;verticalAlign=middle;resizable=0;points=[];autosize=1;strokeColor=none;fillColor=none;" parent="1" vertex="1">
          <mxGeometry x="394.5" y="1053" width="40" height="40" as="geometry" />
        </mxCell>
        <mxCell id="HWDHlVqQiTKd7jb5pM2E-31" value="否" style="text;html=1;align=center;verticalAlign=middle;resizable=0;points=[];autosize=1;strokeColor=none;fillColor=none;" parent="1" vertex="1">
          <mxGeometry x="546.5" y="1030" width="40" height="30" as="geometry" />
        </mxCell>
        <mxCell id="HWDHlVqQiTKd7jb5pM2E-33" value="闯入计算结束" style="strokeWidth=2;html=1;shape=mxgraph.flowchart.terminator;whiteSpace=wrap;" parent="1" vertex="1">
          <mxGeometry x="354.4966666666667" y="1189.9999999999998" width="100" height="60" as="geometry" />
        </mxCell>
        <mxCell id="kHAz-CfNLVTGYXqm2shz-12" style="edgeStyle=orthogonalEdgeStyle;rounded=0;orthogonalLoop=1;jettySize=auto;html=1;exitX=0.5;exitY=1;exitDx=0;exitDy=0;exitPerimeter=0;" edge="1" parent="1" source="kHAz-CfNLVTGYXqm2shz-13" target="kHAz-CfNLVTGYXqm2shz-15">
          <mxGeometry relative="1" as="geometry">
            <mxPoint x="372.16666666666674" y="1610" as="targetPoint" />
          </mxGeometry>
        </mxCell>
        <mxCell id="kHAz-CfNLVTGYXqm2shz-13" value="订阅闯入计算开始" style="strokeWidth=2;html=1;shape=mxgraph.flowchart.terminator;whiteSpace=wrap;" vertex="1" parent="1">
          <mxGeometry x="322" y="1510" width="100" height="60" as="geometry" />
        </mxCell>
        <mxCell id="kHAz-CfNLVTGYXqm2shz-14" style="edgeStyle=orthogonalEdgeStyle;rounded=0;orthogonalLoop=1;jettySize=auto;html=1;exitX=0.5;exitY=1;exitDx=0;exitDy=0;" edge="1" parent="1" source="kHAz-CfNLVTGYXqm2shz-15" target="kHAz-CfNLVTGYXqm2shz-18">
          <mxGeometry relative="1" as="geometry">
            <mxPoint x="372.16666666666674" y="1730" as="targetPoint" />
          </mxGeometry>
        </mxCell>
        <mxCell id="kHAz-CfNLVTGYXqm2shz-15" value="接收需要计算的点,以及需要计算的区域类型" style="rounded=0;whiteSpace=wrap;html=1;" vertex="1" parent="1">
          <mxGeometry x="302" y="1610" width="140" height="80" as="geometry" />
        </mxCell>
        <mxCell id="kHAz-CfNLVTGYXqm2shz-16" value="" style="edgeStyle=orthogonalEdgeStyle;rounded=0;orthogonalLoop=1;jettySize=auto;html=1;" edge="1" parent="1" source="kHAz-CfNLVTGYXqm2shz-18" target="kHAz-CfNLVTGYXqm2shz-20">
          <mxGeometry relative="1" as="geometry" />
        </mxCell>
        <mxCell id="kHAz-CfNLVTGYXqm2shz-18" value="计算判断点位是否位于管制区内" style="rhombus;whiteSpace=wrap;html=1;" vertex="1" parent="1">
          <mxGeometry x="268.25" y="1733" width="208.75" height="160" as="geometry" />
        </mxCell>
        <mxCell id="kHAz-CfNLVTGYXqm2shz-19" style="edgeStyle=orthogonalEdgeStyle;rounded=0;orthogonalLoop=1;jettySize=auto;html=1;exitX=0.5;exitY=1;exitDx=0;exitDy=0;" edge="1" parent="1" source="kHAz-CfNLVTGYXqm2shz-20" target="kHAz-CfNLVTGYXqm2shz-22">
          <mxGeometry relative="1" as="geometry">
            <mxPoint x="372.16666666666674" y="2050" as="targetPoint" />
          </mxGeometry>
        </mxCell>
        <mxCell id="kHAz-CfNLVTGYXqm2shz-20" value="创建报警./预警事件" style="whiteSpace=wrap;html=1;" vertex="1" parent="1">
          <mxGeometry x="312" y="1940" width="120" height="60" as="geometry" />
        </mxCell>
        <mxCell id="kHAz-CfNLVTGYXqm2shz-21" value="是&lt;div&gt;&lt;br&gt;&lt;/div&gt;" style="text;html=1;align=center;verticalAlign=middle;resizable=0;points=[];autosize=1;strokeColor=none;fillColor=none;" vertex="1" parent="1">
          <mxGeometry x="362" y="1893" width="40" height="40" as="geometry" />
        </mxCell>
        <mxCell id="kHAz-CfNLVTGYXqm2shz-22" value="计算结束" style="strokeWidth=2;html=1;shape=mxgraph.flowchart.terminator;whiteSpace=wrap;" vertex="1" parent="1">
          <mxGeometry x="321.99666666666667" y="2029.9999999999998" width="100" height="60" as="geometry" />
        </mxCell>
        <mxCell id="kHAz-CfNLVTGYXqm2shz-24" style="edgeStyle=orthogonalEdgeStyle;rounded=0;orthogonalLoop=1;jettySize=auto;html=1;exitX=0;exitY=0.5;exitDx=0;exitDy=0;entryX=0;entryY=0.5;entryDx=0;entryDy=0;entryPerimeter=0;" edge="1" parent="1" source="kHAz-CfNLVTGYXqm2shz-18" target="kHAz-CfNLVTGYXqm2shz-22">
          <mxGeometry relative="1" as="geometry" />
        </mxCell>
        <mxCell id="kHAz-CfNLVTGYXqm2shz-25" value="否" style="text;html=1;align=center;verticalAlign=middle;resizable=0;points=[];autosize=1;strokeColor=none;fillColor=none;" vertex="1" parent="1">
          <mxGeometry x="170" y="1910" width="40" height="30" as="geometry" />
        </mxCell>
        <mxCell id="kHAz-CfNLVTGYXqm2shz-46" value="" style="rounded=0;whiteSpace=wrap;html=1;" vertex="1" parent="1">
          <mxGeometry x="-2.75" y="2140" width="785.5" height="520" as="geometry" />
        </mxCell>
        <mxCell id="kHAz-CfNLVTGYXqm2shz-48" value="查询字段 区域名称 区域所属 区域启用类型&amp;nbsp;" style="rounded=0;whiteSpace=wrap;html=1;" vertex="1" parent="1">
          <mxGeometry x="-2.75" y="2140" width="780" height="40" as="geometry" />
        </mxCell>
        <mxCell id="kHAz-CfNLVTGYXqm2shz-49" value="" style="rounded=0;whiteSpace=wrap;html=1;" vertex="1" parent="1">
          <mxGeometry x="-2.75" y="2180" width="780" height="330" as="geometry" />
        </mxCell>
        <mxCell id="kHAz-CfNLVTGYXqm2shz-50" value="展示字段: 区域名称 区域所属 区域类型 是否关联卡口 启用状态(做一个左右按钮) 操作:查看区域&amp;nbsp; 授权管理 编辑 删除&amp;nbsp;" style="rounded=0;whiteSpace=wrap;html=1;" vertex="1" parent="1">
          <mxGeometry x="-2.75" y="2240" width="780" height="330" as="geometry" />
        </mxCell>
        <mxCell id="kHAz-CfNLVTGYXqm2shz-53" value="新增区域" style="rounded=1;whiteSpace=wrap;html=1;" vertex="1" parent="1">
          <mxGeometry x="7.25" y="2190" width="80" height="40" as="geometry" />
        </mxCell>
        <mxCell id="kHAz-CfNLVTGYXqm2shz-54" value="全局预览" style="rounded=1;whiteSpace=wrap;html=1;" vertex="1" parent="1">
          <mxGeometry x="107.25" y="2190" width="80" height="40" as="geometry" />
        </mxCell>
        <mxCell id="kHAz-CfNLVTGYXqm2shz-55" value="" style="rounded=0;whiteSpace=wrap;html=1;" vertex="1" parent="1">
          <mxGeometry x="-235" y="2740" width="610" height="550" as="geometry" />
        </mxCell>
        <mxCell id="kHAz-CfNLVTGYXqm2shz-56" value="&lt;span style=&quot;font-family: &amp;quot;SF Pro Display&amp;quot;, -apple-system, BlinkMacSystemFont, &amp;quot;Segoe Ul&amp;quot;, &amp;quot;PingFang SC&amp;quot;, &amp;quot;Hiragino Sans GB&amp;quot;, &amp;quot;Microsoft YaHei&amp;quot;, &amp;quot;Helvetica Neue&amp;quot;, Helvetica, Arial, sans-serif; font-size: 14px; text-align: start; white-space-collapse: preserve; background-color: rgb(255, 255, 255);&quot;&gt;区域名称&lt;br&gt;区域编码&lt;br&gt;区域类型&lt;br&gt;区域所属&lt;br&gt;所属企业&lt;br&gt;监管等级&lt;br&gt;门禁/卡口&lt;br&gt;是否为辐射点禁区&lt;br&gt;辐射区域半径(米)&lt;/span&gt;" style="rounded=0;whiteSpace=wrap;html=1;" vertex="1" parent="1">
          <mxGeometry x="375" y="2740" width="200" height="550" as="geometry" />
        </mxCell>
        <mxCell id="kHAz-CfNLVTGYXqm2shz-57" value="&lt;br class=&quot;Apple-interchange-newline&quot;&gt;" style="text;whiteSpace=wrap;html=1;" vertex="1" parent="1">
          <mxGeometry x="460" y="3070" width="30" height="40" as="geometry" />
        </mxCell>
        <mxCell id="kHAz-CfNLVTGYXqm2shz-58" value="确认" style="rounded=1;whiteSpace=wrap;html=1;" vertex="1" parent="1">
          <mxGeometry x="389.5" y="3240" width="65" height="30" as="geometry" />
        </mxCell>
        <mxCell id="kHAz-CfNLVTGYXqm2shz-59" value="在此处绘制多边形区域或标点" style="rounded=0;whiteSpace=wrap;html=1;" vertex="1" parent="1">
          <mxGeometry x="-213.5" y="2800" width="548" height="470" as="geometry" />
        </mxCell>
        <mxCell id="kHAz-CfNLVTGYXqm2shz-61" value="" style="shape=hexagon;perimeter=hexagonPerimeter2;whiteSpace=wrap;html=1;fixedSize=1;fillColor=#FF6666;" vertex="1" parent="1">
          <mxGeometry x="-130" y="2883" width="210" height="80" as="geometry" />
        </mxCell>
        <mxCell id="kHAz-CfNLVTGYXqm2shz-62" value="" style="html=1;shadow=0;dashed=0;align=center;verticalAlign=middle;shape=mxgraph.arrows2.arrow;dy=0.6;dx=40;direction=south;notch=0;fillColor=#99FF33;" vertex="1" parent="1">
          <mxGeometry x="170" y="2893" width="22.75" height="60" as="geometry" />
        </mxCell>
        <mxCell id="kHAz-CfNLVTGYXqm2shz-63" value="区域绘制" style="rounded=1;whiteSpace=wrap;html=1;" vertex="1" parent="1">
          <mxGeometry x="-213.5" y="2760" width="73.5" height="30" as="geometry" />
        </mxCell>
        <mxCell id="kHAz-CfNLVTGYXqm2shz-64" value="辐射打点" style="rounded=1;whiteSpace=wrap;html=1;" vertex="1" parent="1">
          <mxGeometry x="-130" y="2760" width="90" height="30" as="geometry" />
        </mxCell>
        <mxCell id="kHAz-CfNLVTGYXqm2shz-66" style="edgeStyle=orthogonalEdgeStyle;rounded=0;orthogonalLoop=1;jettySize=auto;html=1;exitX=0.5;exitY=1;exitDx=0;exitDy=0;exitPerimeter=0;" edge="1" parent="1" source="kHAz-CfNLVTGYXqm2shz-67" target="kHAz-CfNLVTGYXqm2shz-69">
          <mxGeometry relative="1" as="geometry" />
        </mxCell>
        <mxCell id="kHAz-CfNLVTGYXqm2shz-67" value="关闭开始" style="strokeWidth=2;html=1;shape=mxgraph.flowchart.terminator;whiteSpace=wrap;" vertex="1" parent="1">
          <mxGeometry x="-227.97000000000003" y="1" width="96" height="50" as="geometry" />
        </mxCell>
        <mxCell id="kHAz-CfNLVTGYXqm2shz-68" style="edgeStyle=orthogonalEdgeStyle;rounded=0;orthogonalLoop=1;jettySize=auto;html=1;exitX=0.5;exitY=1;exitDx=0;exitDy=0;" edge="1" parent="1" source="kHAz-CfNLVTGYXqm2shz-69" target="kHAz-CfNLVTGYXqm2shz-74">
          <mxGeometry relative="1" as="geometry">
            <mxPoint x="-180" y="201.02374999999984" as="targetPoint" />
          </mxGeometry>
        </mxCell>
        <mxCell id="kHAz-CfNLVTGYXqm2shz-69" value="接收绘制区域主键信息" style="rounded=0;whiteSpace=wrap;html=1;" vertex="1" parent="1">
          <mxGeometry x="-243.47000000000003" y="101" width="126" height="60" as="geometry" />
        </mxCell>
        <mxCell id="kHAz-CfNLVTGYXqm2shz-73" style="edgeStyle=orthogonalEdgeStyle;rounded=0;orthogonalLoop=1;jettySize=auto;html=1;exitX=0.5;exitY=1;exitDx=0;exitDy=0;" edge="1" parent="1" source="kHAz-CfNLVTGYXqm2shz-74" target="kHAz-CfNLVTGYXqm2shz-77">
          <mxGeometry relative="1" as="geometry">
            <mxPoint x="-180.13666666666654" y="441" as="targetPoint" />
          </mxGeometry>
        </mxCell>
        <mxCell id="kHAz-CfNLVTGYXqm2shz-74" value="关闭对应区域启用状态,自动删除区域所有授权信息" style="rounded=0;whiteSpace=wrap;html=1;" vertex="1" parent="1">
          <mxGeometry x="-240.46666666666653" y="220" width="120" height="60" as="geometry" />
        </mxCell>
        <mxCell id="kHAz-CfNLVTGYXqm2shz-77" value="关闭结束" style="strokeWidth=2;html=1;shape=mxgraph.flowchart.terminator;whiteSpace=wrap;" vertex="1" parent="1">
          <mxGeometry x="-229.96666666666653" y="320" width="100" height="60" as="geometry" />
        </mxCell>
        <mxCell id="kHAz-CfNLVTGYXqm2shz-85" style="edgeStyle=orthogonalEdgeStyle;rounded=0;orthogonalLoop=1;jettySize=auto;html=1;exitX=0.5;exitY=1;exitDx=0;exitDy=0;exitPerimeter=0;" edge="1" parent="1" source="kHAz-CfNLVTGYXqm2shz-86" target="kHAz-CfNLVTGYXqm2shz-88">
          <mxGeometry relative="1" as="geometry">
            <mxPoint x="-570.8333333333333" y="640" as="targetPoint" />
          </mxGeometry>
        </mxCell>
        <mxCell id="kHAz-CfNLVTGYXqm2shz-86" value="禁区闯入开始" style="strokeWidth=2;html=1;shape=mxgraph.flowchart.terminator;whiteSpace=wrap;" vertex="1" parent="1">
          <mxGeometry x="-621" y="540" width="100" height="60" as="geometry" />
        </mxCell>
        <mxCell id="kHAz-CfNLVTGYXqm2shz-87" style="edgeStyle=orthogonalEdgeStyle;rounded=0;orthogonalLoop=1;jettySize=auto;html=1;exitX=0.5;exitY=1;exitDx=0;exitDy=0;" edge="1" parent="1" source="kHAz-CfNLVTGYXqm2shz-88" target="kHAz-CfNLVTGYXqm2shz-91">
          <mxGeometry relative="1" as="geometry">
            <mxPoint x="-570.8333333333333" y="760" as="targetPoint" />
          </mxGeometry>
        </mxCell>
        <mxCell id="kHAz-CfNLVTGYXqm2shz-88" value="接收禁区标识以及人员/车辆标识信息" style="rounded=0;whiteSpace=wrap;html=1;" vertex="1" parent="1">
          <mxGeometry x="-641" y="640" width="140" height="80" as="geometry" />
        </mxCell>
        <mxCell id="kHAz-CfNLVTGYXqm2shz-97" style="edgeStyle=orthogonalEdgeStyle;rounded=0;orthogonalLoop=1;jettySize=auto;html=1;exitX=0.5;exitY=1;exitDx=0;exitDy=0;" edge="1" parent="1" source="kHAz-CfNLVTGYXqm2shz-91" target="kHAz-CfNLVTGYXqm2shz-99">
          <mxGeometry relative="1" as="geometry">
            <mxPoint x="-570.6764705882351" y="960" as="targetPoint" />
          </mxGeometry>
        </mxCell>
        <mxCell id="kHAz-CfNLVTGYXqm2shz-91" value="计算判断点位是否位于管制区内" style="rhombus;whiteSpace=wrap;html=1;" vertex="1" parent="1">
          <mxGeometry x="-673.5" y="740" width="205" height="160" as="geometry" />
        </mxCell>
        <mxCell id="kHAz-CfNLVTGYXqm2shz-92" style="edgeStyle=orthogonalEdgeStyle;rounded=0;orthogonalLoop=1;jettySize=auto;html=1;exitX=0.5;exitY=1;exitDx=0;exitDy=0;" edge="1" parent="1" source="kHAz-CfNLVTGYXqm2shz-93" target="kHAz-CfNLVTGYXqm2shz-96">
          <mxGeometry relative="1" as="geometry">
            <mxPoint x="-570.8333333333333" y="1079.9999999999998" as="targetPoint" />
          </mxGeometry>
        </mxCell>
        <mxCell id="kHAz-CfNLVTGYXqm2shz-93" value="返回一个所在禁区集合列表,给上是否位于禁区标识" style="whiteSpace=wrap;html=1;" vertex="1" parent="1">
          <mxGeometry x="-631" y="1090" width="120" height="60" as="geometry" />
        </mxCell>
        <mxCell id="kHAz-CfNLVTGYXqm2shz-94" value="是&lt;div&gt;&lt;br&gt;&lt;/div&gt;" style="text;html=1;align=center;verticalAlign=middle;resizable=0;points=[];autosize=1;strokeColor=none;fillColor=none;" vertex="1" parent="1">
          <mxGeometry x="-551" y="910" width="40" height="40" as="geometry" />
        </mxCell>
        <mxCell id="kHAz-CfNLVTGYXqm2shz-95" value="否" style="text;html=1;align=center;verticalAlign=middle;resizable=0;points=[];autosize=1;strokeColor=none;fillColor=none;" vertex="1" parent="1">
          <mxGeometry x="-429" y="870" width="40" height="30" as="geometry" />
        </mxCell>
        <mxCell id="kHAz-CfNLVTGYXqm2shz-96" value="闯入计算结束" style="strokeWidth=2;html=1;shape=mxgraph.flowchart.terminator;whiteSpace=wrap;" vertex="1" parent="1">
          <mxGeometry x="-621.0033333333333" y="1179.9999999999998" width="100" height="60" as="geometry" />
        </mxCell>
        <mxCell id="kHAz-CfNLVTGYXqm2shz-100" style="edgeStyle=orthogonalEdgeStyle;rounded=0;orthogonalLoop=1;jettySize=auto;html=1;exitX=0.5;exitY=1;exitDx=0;exitDy=0;" edge="1" parent="1" source="kHAz-CfNLVTGYXqm2shz-99" target="kHAz-CfNLVTGYXqm2shz-93">
          <mxGeometry relative="1" as="geometry" />
        </mxCell>
        <mxCell id="kHAz-CfNLVTGYXqm2shz-99" value="判断是否属于区域对应授权名单内" style="rhombus;whiteSpace=wrap;html=1;" vertex="1" parent="1">
          <mxGeometry x="-677.63" y="940" width="213.25" height="130" as="geometry" />
        </mxCell>
        <mxCell id="kHAz-CfNLVTGYXqm2shz-103" value="是" style="text;html=1;align=center;verticalAlign=middle;resizable=0;points=[];autosize=1;strokeColor=none;fillColor=none;" vertex="1" parent="1">
          <mxGeometry x="-385.5" y="-110" width="40" height="30" as="geometry" />
        </mxCell>
        <mxCell id="kHAz-CfNLVTGYXqm2shz-104" style="edgeStyle=orthogonalEdgeStyle;rounded=0;orthogonalLoop=1;jettySize=auto;html=1;exitX=0.5;exitY=1;exitDx=0;exitDy=0;exitPerimeter=0;" edge="1" parent="1" source="kHAz-CfNLVTGYXqm2shz-105" target="kHAz-CfNLVTGYXqm2shz-107">
          <mxGeometry relative="1" as="geometry">
            <mxPoint x="-7.3333333333332575" y="640" as="targetPoint" />
          </mxGeometry>
        </mxCell>
        <mxCell id="kHAz-CfNLVTGYXqm2shz-105" value="授权开始" style="strokeWidth=2;html=1;shape=mxgraph.flowchart.terminator;whiteSpace=wrap;" vertex="1" parent="1">
          <mxGeometry x="-57.5" y="540" width="100" height="60" as="geometry" />
        </mxCell>
        <mxCell id="kHAz-CfNLVTGYXqm2shz-106" style="edgeStyle=orthogonalEdgeStyle;rounded=0;orthogonalLoop=1;jettySize=auto;html=1;exitX=0.5;exitY=1;exitDx=0;exitDy=0;" edge="1" parent="1" source="kHAz-CfNLVTGYXqm2shz-107" target="kHAz-CfNLVTGYXqm2shz-110">
          <mxGeometry relative="1" as="geometry">
            <mxPoint x="-7.3333333333332575" y="760" as="targetPoint" />
          </mxGeometry>
        </mxCell>
        <mxCell id="kHAz-CfNLVTGYXqm2shz-107" value="接收授权区域标识,以及授权人员信息,授权周期" style="rounded=0;whiteSpace=wrap;html=1;" vertex="1" parent="1">
          <mxGeometry x="-77.5" y="640" width="140" height="80" as="geometry" />
        </mxCell>
        <mxCell id="kHAz-CfNLVTGYXqm2shz-108" value="" style="edgeStyle=orthogonalEdgeStyle;rounded=0;orthogonalLoop=1;jettySize=auto;html=1;" edge="1" parent="1" source="kHAz-CfNLVTGYXqm2shz-110" target="kHAz-CfNLVTGYXqm2shz-112">
          <mxGeometry relative="1" as="geometry" />
        </mxCell>
        <mxCell id="kHAz-CfNLVTGYXqm2shz-110" value="判断授权区域是否存在且是否开启" style="rhombus;whiteSpace=wrap;html=1;" vertex="1" parent="1">
          <mxGeometry x="-110" y="760" width="205" height="160" as="geometry" />
        </mxCell>
        <mxCell id="kHAz-CfNLVTGYXqm2shz-111" style="edgeStyle=orthogonalEdgeStyle;rounded=0;orthogonalLoop=1;jettySize=auto;html=1;exitX=0.5;exitY=1;exitDx=0;exitDy=0;" edge="1" parent="1" source="kHAz-CfNLVTGYXqm2shz-112" target="kHAz-CfNLVTGYXqm2shz-115">
          <mxGeometry relative="1" as="geometry">
            <mxPoint x="-7.3333333333332575" y="1079.9999999999998" as="targetPoint" />
          </mxGeometry>
        </mxCell>
        <mxCell id="kHAz-CfNLVTGYXqm2shz-112" value="正常添加授权信息" style="whiteSpace=wrap;html=1;" vertex="1" parent="1">
          <mxGeometry x="-67.5" y="970" width="120" height="60" as="geometry" />
        </mxCell>
        <mxCell id="kHAz-CfNLVTGYXqm2shz-113" value="是&lt;div&gt;&lt;br&gt;&lt;/div&gt;" style="text;html=1;align=center;verticalAlign=middle;resizable=0;points=[];autosize=1;strokeColor=none;fillColor=none;" vertex="1" parent="1">
          <mxGeometry x="-17.5" y="923" width="40" height="40" as="geometry" />
        </mxCell>
        <mxCell id="kHAz-CfNLVTGYXqm2shz-114" value="否" style="text;html=1;align=center;verticalAlign=middle;resizable=0;points=[];autosize=1;strokeColor=none;fillColor=none;" vertex="1" parent="1">
          <mxGeometry x="134.5" y="900" width="40" height="30" as="geometry" />
        </mxCell>
        <mxCell id="kHAz-CfNLVTGYXqm2shz-115" value="授权结束" style="strokeWidth=2;html=1;shape=mxgraph.flowchart.terminator;whiteSpace=wrap;" vertex="1" parent="1">
          <mxGeometry x="-57.50333333333327" y="1059.9999999999998" width="100" height="60" as="geometry" />
        </mxCell>
        <mxCell id="kHAz-CfNLVTGYXqm2shz-116" style="edgeStyle=orthogonalEdgeStyle;rounded=0;orthogonalLoop=1;jettySize=auto;html=1;exitX=1;exitY=0.5;exitDx=0;exitDy=0;entryX=1;entryY=0.5;entryDx=0;entryDy=0;entryPerimeter=0;" edge="1" parent="1" source="kHAz-CfNLVTGYXqm2shz-110" target="kHAz-CfNLVTGYXqm2shz-115">
          <mxGeometry relative="1" as="geometry" />
        </mxCell>
        <mxCell id="kHAz-CfNLVTGYXqm2shz-117" style="edgeStyle=orthogonalEdgeStyle;rounded=0;orthogonalLoop=1;jettySize=auto;html=1;exitX=1;exitY=0.5;exitDx=0;exitDy=0;entryX=1;entryY=0.5;entryDx=0;entryDy=0;entryPerimeter=0;" edge="1" parent="1" source="kHAz-CfNLVTGYXqm2shz-91" target="kHAz-CfNLVTGYXqm2shz-96">
          <mxGeometry relative="1" as="geometry" />
        </mxCell>
        <mxCell id="kHAz-CfNLVTGYXqm2shz-118" style="edgeStyle=orthogonalEdgeStyle;rounded=0;orthogonalLoop=1;jettySize=auto;html=1;exitX=1;exitY=0.5;exitDx=0;exitDy=0;entryX=1;entryY=0.5;entryDx=0;entryDy=0;entryPerimeter=0;" edge="1" parent="1" source="kHAz-CfNLVTGYXqm2shz-99" target="kHAz-CfNLVTGYXqm2shz-96">
          <mxGeometry relative="1" as="geometry">
            <Array as="points">
              <mxPoint x="-385.5" y="1005" />
              <mxPoint x="-385.5" y="1210" />
            </Array>
          </mxGeometry>
        </mxCell>
        <mxCell id="kHAz-CfNLVTGYXqm2shz-119" value="是" style="text;html=1;align=center;verticalAlign=middle;resizable=0;points=[];autosize=1;strokeColor=none;fillColor=none;" vertex="1" parent="1">
          <mxGeometry x="-385.5" y="1048" width="40" height="30" as="geometry" />
        </mxCell>
        <mxCell id="kHAz-CfNLVTGYXqm2shz-120" value="否" style="text;html=1;align=center;verticalAlign=middle;resizable=0;points=[];autosize=1;strokeColor=none;fillColor=none;" vertex="1" parent="1">
          <mxGeometry x="-551" y="1060" width="40" height="30" as="geometry" />
        </mxCell>
        <mxCell id="kHAz-CfNLVTGYXqm2shz-121" style="edgeStyle=orthogonalEdgeStyle;rounded=0;orthogonalLoop=1;jettySize=auto;html=1;exitX=0.5;exitY=1;exitDx=0;exitDy=0;exitPerimeter=0;" edge="1" parent="1" source="kHAz-CfNLVTGYXqm2shz-122" target="kHAz-CfNLVTGYXqm2shz-124">
          <mxGeometry relative="1" as="geometry">
            <mxPoint x="-470.71333333333325" y="1550" as="targetPoint" />
          </mxGeometry>
        </mxCell>
        <mxCell id="kHAz-CfNLVTGYXqm2shz-122" value="授权关闭" style="strokeWidth=2;html=1;shape=mxgraph.flowchart.terminator;whiteSpace=wrap;" vertex="1" parent="1">
          <mxGeometry x="-520.88" y="1450" width="100" height="60" as="geometry" />
        </mxCell>
        <mxCell id="kHAz-CfNLVTGYXqm2shz-123" style="edgeStyle=orthogonalEdgeStyle;rounded=0;orthogonalLoop=1;jettySize=auto;html=1;exitX=0.5;exitY=1;exitDx=0;exitDy=0;" edge="1" parent="1" source="kHAz-CfNLVTGYXqm2shz-124" target="kHAz-CfNLVTGYXqm2shz-126">
          <mxGeometry relative="1" as="geometry">
            <mxPoint x="-470.71333333333325" y="1670" as="targetPoint" />
          </mxGeometry>
        </mxCell>
        <mxCell id="kHAz-CfNLVTGYXqm2shz-124" value="接收授权区域标识,以及授权人员/车辆信息" style="rounded=0;whiteSpace=wrap;html=1;" vertex="1" parent="1">
          <mxGeometry x="-540.88" y="1550" width="140" height="80" as="geometry" />
        </mxCell>
        <mxCell id="kHAz-CfNLVTGYXqm2shz-125" value="" style="edgeStyle=orthogonalEdgeStyle;rounded=0;orthogonalLoop=1;jettySize=auto;html=1;" edge="1" parent="1" source="kHAz-CfNLVTGYXqm2shz-126" target="kHAz-CfNLVTGYXqm2shz-128">
          <mxGeometry relative="1" as="geometry" />
        </mxCell>
        <mxCell id="kHAz-CfNLVTGYXqm2shz-126" value="判断授权区域是否存在且是否开启" style="rhombus;whiteSpace=wrap;html=1;" vertex="1" parent="1">
          <mxGeometry x="-573.38" y="1670" width="205" height="160" as="geometry" />
        </mxCell>
        <mxCell id="kHAz-CfNLVTGYXqm2shz-127" style="edgeStyle=orthogonalEdgeStyle;rounded=0;orthogonalLoop=1;jettySize=auto;html=1;exitX=0.5;exitY=1;exitDx=0;exitDy=0;" edge="1" parent="1" source="kHAz-CfNLVTGYXqm2shz-128" target="kHAz-CfNLVTGYXqm2shz-131">
          <mxGeometry relative="1" as="geometry">
            <mxPoint x="-470.71333333333325" y="1989.9999999999998" as="targetPoint" />
          </mxGeometry>
        </mxCell>
        <mxCell id="kHAz-CfNLVTGYXqm2shz-128" value="取消授权信息" style="whiteSpace=wrap;html=1;" vertex="1" parent="1">
          <mxGeometry x="-530.88" y="1860" width="120" height="60" as="geometry" />
        </mxCell>
        <mxCell id="kHAz-CfNLVTGYXqm2shz-129" value="是&lt;div&gt;&lt;br&gt;&lt;/div&gt;" style="text;html=1;align=center;verticalAlign=middle;resizable=0;points=[];autosize=1;strokeColor=none;fillColor=none;" vertex="1" parent="1">
          <mxGeometry x="-480.88" y="1833" width="40" height="40" as="geometry" />
        </mxCell>
        <mxCell id="kHAz-CfNLVTGYXqm2shz-130" value="否" style="text;html=1;align=center;verticalAlign=middle;resizable=0;points=[];autosize=1;strokeColor=none;fillColor=none;" vertex="1" parent="1">
          <mxGeometry x="-328.88" y="1810" width="40" height="30" as="geometry" />
        </mxCell>
        <mxCell id="kHAz-CfNLVTGYXqm2shz-131" value="授权结束" style="strokeWidth=2;html=1;shape=mxgraph.flowchart.terminator;whiteSpace=wrap;" vertex="1" parent="1">
          <mxGeometry x="-520.8833333333332" y="1969.9999999999998" width="100" height="60" as="geometry" />
        </mxCell>
        <mxCell id="kHAz-CfNLVTGYXqm2shz-132" style="edgeStyle=orthogonalEdgeStyle;rounded=0;orthogonalLoop=1;jettySize=auto;html=1;exitX=1;exitY=0.5;exitDx=0;exitDy=0;entryX=1;entryY=0.5;entryDx=0;entryDy=0;entryPerimeter=0;" edge="1" parent="1" source="kHAz-CfNLVTGYXqm2shz-126" target="kHAz-CfNLVTGYXqm2shz-131">
          <mxGeometry relative="1" as="geometry" />
        </mxCell>
        <mxCell id="kHAz-CfNLVTGYXqm2shz-133" style="edgeStyle=orthogonalEdgeStyle;rounded=0;orthogonalLoop=1;jettySize=auto;html=1;exitX=0.5;exitY=1;exitDx=0;exitDy=0;exitPerimeter=0;" edge="1" parent="1" source="kHAz-CfNLVTGYXqm2shz-134" target="kHAz-CfNLVTGYXqm2shz-136">
          <mxGeometry relative="1" as="geometry">
            <mxPoint x="-697.3333333333333" y="2840" as="targetPoint" />
          </mxGeometry>
        </mxCell>
        <mxCell id="kHAz-CfNLVTGYXqm2shz-134" value="禁区闯入开始" style="strokeWidth=2;html=1;shape=mxgraph.flowchart.terminator;whiteSpace=wrap;" vertex="1" parent="1">
          <mxGeometry x="-747.5" y="2740" width="100" height="60" as="geometry" />
        </mxCell>
        <mxCell id="kHAz-CfNLVTGYXqm2shz-135" style="edgeStyle=orthogonalEdgeStyle;rounded=0;orthogonalLoop=1;jettySize=auto;html=1;exitX=0.5;exitY=1;exitDx=0;exitDy=0;" edge="1" parent="1" source="kHAz-CfNLVTGYXqm2shz-136" target="kHAz-CfNLVTGYXqm2shz-138">
          <mxGeometry relative="1" as="geometry">
            <mxPoint x="-697.3333333333333" y="2960" as="targetPoint" />
          </mxGeometry>
        </mxCell>
        <mxCell id="kHAz-CfNLVTGYXqm2shz-136" value="接收禁区标识以及人员/车辆标识信息" style="rounded=0;whiteSpace=wrap;html=1;" vertex="1" parent="1">
          <mxGeometry x="-767.5" y="2840" width="140" height="80" as="geometry" />
        </mxCell>
        <mxCell id="kHAz-CfNLVTGYXqm2shz-137" style="edgeStyle=orthogonalEdgeStyle;rounded=0;orthogonalLoop=1;jettySize=auto;html=1;exitX=0.5;exitY=1;exitDx=0;exitDy=0;" edge="1" parent="1" source="kHAz-CfNLVTGYXqm2shz-138" target="kHAz-CfNLVTGYXqm2shz-145">
          <mxGeometry relative="1" as="geometry">
            <mxPoint x="-697.1764705882351" y="3160" as="targetPoint" />
          </mxGeometry>
        </mxCell>
        <mxCell id="kHAz-CfNLVTGYXqm2shz-138" value="计算判断点位是否位于管制区内" style="rhombus;whiteSpace=wrap;html=1;" vertex="1" parent="1">
          <mxGeometry x="-800" y="2940" width="205" height="160" as="geometry" />
        </mxCell>
        <mxCell id="kHAz-CfNLVTGYXqm2shz-139" style="edgeStyle=orthogonalEdgeStyle;rounded=0;orthogonalLoop=1;jettySize=auto;html=1;exitX=0.5;exitY=1;exitDx=0;exitDy=0;" edge="1" parent="1" source="kHAz-CfNLVTGYXqm2shz-140" target="kHAz-CfNLVTGYXqm2shz-143">
          <mxGeometry relative="1" as="geometry">
            <mxPoint x="-697.3333333333333" y="3280" as="targetPoint" />
          </mxGeometry>
        </mxCell>
        <mxCell id="kHAz-CfNLVTGYXqm2shz-140" value="产生报警/预警" style="whiteSpace=wrap;html=1;" vertex="1" parent="1">
          <mxGeometry x="-757.5" y="3290" width="120" height="60" as="geometry" />
        </mxCell>
        <mxCell id="kHAz-CfNLVTGYXqm2shz-141" value="是&lt;div&gt;&lt;br&gt;&lt;/div&gt;" style="text;html=1;align=center;verticalAlign=middle;resizable=0;points=[];autosize=1;strokeColor=none;fillColor=none;" vertex="1" parent="1">
          <mxGeometry x="-677.5" y="3110" width="40" height="40" as="geometry" />
        </mxCell>
        <mxCell id="kHAz-CfNLVTGYXqm2shz-142" value="否" style="text;html=1;align=center;verticalAlign=middle;resizable=0;points=[];autosize=1;strokeColor=none;fillColor=none;" vertex="1" parent="1">
          <mxGeometry x="-555.5" y="3070" width="40" height="30" as="geometry" />
        </mxCell>
        <mxCell id="kHAz-CfNLVTGYXqm2shz-143" value="闯入计算结束" style="strokeWidth=2;html=1;shape=mxgraph.flowchart.terminator;whiteSpace=wrap;" vertex="1" parent="1">
          <mxGeometry x="-747.5033333333333" y="3380" width="100" height="60" as="geometry" />
        </mxCell>
        <mxCell id="kHAz-CfNLVTGYXqm2shz-144" style="edgeStyle=orthogonalEdgeStyle;rounded=0;orthogonalLoop=1;jettySize=auto;html=1;exitX=0.5;exitY=1;exitDx=0;exitDy=0;" edge="1" parent="1" source="kHAz-CfNLVTGYXqm2shz-145" target="kHAz-CfNLVTGYXqm2shz-140">
          <mxGeometry relative="1" as="geometry" />
        </mxCell>
        <mxCell id="kHAz-CfNLVTGYXqm2shz-145" value="判断是否属于区域对应授权名单内" style="rhombus;whiteSpace=wrap;html=1;" vertex="1" parent="1">
          <mxGeometry x="-804.13" y="3140" width="213.25" height="130" as="geometry" />
        </mxCell>
        <mxCell id="kHAz-CfNLVTGYXqm2shz-146" style="edgeStyle=orthogonalEdgeStyle;rounded=0;orthogonalLoop=1;jettySize=auto;html=1;exitX=1;exitY=0.5;exitDx=0;exitDy=0;entryX=1;entryY=0.5;entryDx=0;entryDy=0;entryPerimeter=0;" edge="1" parent="1" source="kHAz-CfNLVTGYXqm2shz-138" target="kHAz-CfNLVTGYXqm2shz-143">
          <mxGeometry relative="1" as="geometry" />
        </mxCell>
        <mxCell id="kHAz-CfNLVTGYXqm2shz-147" style="edgeStyle=orthogonalEdgeStyle;rounded=0;orthogonalLoop=1;jettySize=auto;html=1;exitX=1;exitY=0.5;exitDx=0;exitDy=0;entryX=1;entryY=0.5;entryDx=0;entryDy=0;entryPerimeter=0;" edge="1" parent="1" source="kHAz-CfNLVTGYXqm2shz-145" target="kHAz-CfNLVTGYXqm2shz-143">
          <mxGeometry relative="1" as="geometry">
            <Array as="points">
              <mxPoint x="-512" y="3205" />
              <mxPoint x="-512" y="3410" />
            </Array>
          </mxGeometry>
        </mxCell>
        <mxCell id="kHAz-CfNLVTGYXqm2shz-148" value="是" style="text;html=1;align=center;verticalAlign=middle;resizable=0;points=[];autosize=1;strokeColor=none;fillColor=none;" vertex="1" parent="1">
          <mxGeometry x="-512" y="3248" width="40" height="30" as="geometry" />
        </mxCell>
        <mxCell id="kHAz-CfNLVTGYXqm2shz-149" value="否" style="text;html=1;align=center;verticalAlign=middle;resizable=0;points=[];autosize=1;strokeColor=none;fillColor=none;" vertex="1" parent="1">
          <mxGeometry x="-677.5" y="3260" width="40" height="30" as="geometry" />
        </mxCell>
        <mxCell id="kHAz-CfNLVTGYXqm2shz-150" style="edgeStyle=orthogonalEdgeStyle;rounded=0;orthogonalLoop=1;jettySize=auto;html=1;exitX=0.5;exitY=1;exitDx=0;exitDy=0;exitPerimeter=0;" edge="1" parent="1" source="kHAz-CfNLVTGYXqm2shz-151" target="kHAz-CfNLVTGYXqm2shz-153">
          <mxGeometry relative="1" as="geometry" />
        </mxCell>
        <mxCell id="kHAz-CfNLVTGYXqm2shz-151" value="授权关闭" style="strokeWidth=2;html=1;shape=mxgraph.flowchart.terminator;whiteSpace=wrap;" vertex="1" parent="1">
          <mxGeometry x="-641.3800000000001" width="96" height="50" as="geometry" />
        </mxCell>
        <mxCell id="kHAz-CfNLVTGYXqm2shz-152" style="edgeStyle=orthogonalEdgeStyle;rounded=0;orthogonalLoop=1;jettySize=auto;html=1;exitX=0.5;exitY=1;exitDx=0;exitDy=0;" edge="1" parent="1" source="kHAz-CfNLVTGYXqm2shz-153" target="kHAz-CfNLVTGYXqm2shz-155">
          <mxGeometry relative="1" as="geometry">
            <mxPoint x="-593.4100000000001" y="200.02374999999984" as="targetPoint" />
          </mxGeometry>
        </mxCell>
        <mxCell id="kHAz-CfNLVTGYXqm2shz-153" value="接收绘制区域主键信息,需要删除授权人员标识" style="rounded=0;whiteSpace=wrap;html=1;" vertex="1" parent="1">
          <mxGeometry x="-656.8800000000001" y="100" width="126" height="60" as="geometry" />
        </mxCell>
        <mxCell id="kHAz-CfNLVTGYXqm2shz-154" style="edgeStyle=orthogonalEdgeStyle;rounded=0;orthogonalLoop=1;jettySize=auto;html=1;exitX=0.5;exitY=1;exitDx=0;exitDy=0;" edge="1" parent="1" source="kHAz-CfNLVTGYXqm2shz-155" target="kHAz-CfNLVTGYXqm2shz-156">
          <mxGeometry relative="1" as="geometry">
            <mxPoint x="-593.5466666666666" y="440" as="targetPoint" />
          </mxGeometry>
        </mxCell>
        <mxCell id="kHAz-CfNLVTGYXqm2shz-155" value="删除区域对应人员授权" style="rounded=0;whiteSpace=wrap;html=1;" vertex="1" parent="1">
          <mxGeometry x="-653.8766666666666" y="219" width="120" height="60" as="geometry" />
        </mxCell>
        <mxCell id="kHAz-CfNLVTGYXqm2shz-156" value="授权关闭结束" style="strokeWidth=2;html=1;shape=mxgraph.flowchart.terminator;whiteSpace=wrap;" vertex="1" parent="1">
          <mxGeometry x="-643.3766666666666" y="319" width="100" height="60" as="geometry" />
        </mxCell>
        <mxCell id="kHAz-CfNLVTGYXqm2shz-157" value="" style="rounded=0;whiteSpace=wrap;html=1;" vertex="1" parent="1">
          <mxGeometry x="-612.97" y="2140" width="481" height="540" as="geometry" />
        </mxCell>
        <mxCell id="kHAz-CfNLVTGYXqm2shz-158" value="驾驶人员手机号:" style="rounded=0;whiteSpace=wrap;html=1;" vertex="1" parent="1">
          <mxGeometry x="-580.3800000000001" y="2400" width="330.88" height="40" as="geometry" />
        </mxCell>
        <mxCell id="kHAz-CfNLVTGYXqm2shz-159" value="驾驶人员mac号:" style="rounded=0;whiteSpace=wrap;html=1;" vertex="1" parent="1">
          <mxGeometry x="-578" y="2460" width="328.5" height="40" as="geometry" />
        </mxCell>
        <mxCell id="kHAz-CfNLVTGYXqm2shz-160" value="授权车牌号:" style="rounded=0;whiteSpace=wrap;html=1;" vertex="1" parent="1">
          <mxGeometry x="-580.38" y="2345" width="328.5" height="40" as="geometry" />
        </mxCell>
        <mxCell id="kHAz-CfNLVTGYXqm2shz-161" value="授权区域名称" style="rounded=0;whiteSpace=wrap;html=1;" vertex="1" parent="1">
          <mxGeometry x="-580.38" y="2290" width="322" height="40" as="geometry" />
        </mxCell>
        <mxCell id="kHAz-CfNLVTGYXqm2shz-162" value="确认&lt;span style=&quot;color: rgba(0, 0, 0, 0); font-family: monospace; font-size: 0px; text-align: start; text-wrap: nowrap;&quot;&gt;%3CmxGraphModel%3E%3Croot%3E%3CmxCell%20id%3D%220%22%2F%3E%3CmxCell%20id%3D%221%22%20parent%3D%220%22%2F%3E%3CmxCell%20id%3D%222%22%20value%3D%22%E6%8E%88%E6%9D%83%E4%BA%BA%E5%91%98mac%E5%8F%B7%3A%22%20style%3D%22rounded%3D0%3BwhiteSpace%3Dwrap%3Bhtml%3D1%3B%22%20vertex%3D%221%22%20parent%3D%221%22%3E%3CmxGeometry%20x%3D%22-466.12%22%20y%3D%222210%22%20width%3D%22328.5%22%20height%3D%2240%22%20as%3D%22geometry%22%2F%3E%3C%2FmxCell%3E%3C%2Froot%3E%3C%2FmxGraphModel%3E&lt;/span&gt;" style="rounded=1;whiteSpace=wrap;html=1;" vertex="1" parent="1">
          <mxGeometry x="-570" y="2600" width="120" height="60" as="geometry" />
        </mxCell>
        <mxCell id="kHAz-CfNLVTGYXqm2shz-163" value="关闭" style="rounded=1;whiteSpace=wrap;html=1;" vertex="1" parent="1">
          <mxGeometry x="-389" y="2600" width="120" height="60" as="geometry" />
        </mxCell>
        <mxCell id="kHAz-CfNLVTGYXqm2shz-164" value="授权人员名称:" style="rounded=0;whiteSpace=wrap;html=1;" vertex="1" parent="1">
          <mxGeometry x="-1020" y="2385" width="322" height="40" as="geometry" />
        </mxCell>
        <mxCell id="kHAz-CfNLVTGYXqm2shz-166" value="已有授权:张三,李四,新M9857" style="rounded=0;whiteSpace=wrap;html=1;" vertex="1" parent="1">
          <mxGeometry x="-580.38" y="2170" width="330" height="60" as="geometry" />
        </mxCell>
        <mxCell id="kHAz-CfNLVTGYXqm2shz-168" value="授权开始-结束时间" style="rounded=0;whiteSpace=wrap;html=1;" vertex="1" parent="1">
          <mxGeometry x="-573.38" y="2530" width="338" height="40" as="geometry" />
        </mxCell>
        <mxCell id="kHAz-CfNLVTGYXqm2shz-171" value="是否车辆: 是" style="rounded=0;whiteSpace=wrap;html=1;" vertex="1" parent="1">
          <mxGeometry x="-578" y="2230" width="308" height="60" as="geometry" />
        </mxCell>
      </root>
    </mxGraphModel>
  </diagram>
</mxfile>
